# xmcd
# 
# Track frame offsets:
#     150
#     12874
#     26381
#     40922
#     55077
#     72590
#     88188
#     102043
#     121703
#     141570
#     155517
#     170197
#     191158
#     211911
#     231443
#     254022
# 
# Disc length: 3659
# 
# Revision: 1
# Processed by: cddbd v1.5.2PL0 Copyright (c) Steve Scherf et al.
# Submitted via: fre:ac v1.0.31
# 
DISCID=e80e4910
DTITLE=Muggsy Spanier - 20.3005-HI (2of2) - Pee Wee Speaks
DYEAR=0
DGENRE=Jazz
TTITLE0=Angry
TTITLE1=Weary Blues
TTITLE2=Snag It
TTITLE3=Alice Blue Gown
TTITLE4=Sweet Lorraine (Version 2)
TTITLE5=Oh! Lady Be Good (Version 2)
TTITLE6=Sugar
TTITLE7=September in the Rain
TTITLE8=Sweet Sue, Just You (Version 2)
TTITLE9=Riverside Blues
TTITLE10=Rosetta
TTITLE11=That's a Plenty (Version 2)
TTITLE12=Squeeze Me
TTITLE13=Jazz Me Blues
TTITLE14=Pee Wee Speaks
TTITLE15=Pat's Blues
EXTD=From "The Cradle of Jazz" 40 cd box set.
EXTT0=
EXTT1=
EXTT2=
EXTT3=
EXTT4=
EXTT5=
EXTT6=
EXTT7=
EXTT8=
EXTT9=
EXTT10=
EXTT11=
EXTT12=
EXTT13=
EXTT14=
EXTT15=
PLAYORDER=
